HIERARCHY
ROOT hip
{
	OFFSET 0.000000 0.000000 0.000000 
	CHANNELS 6 Xposition Yposition Zposition Xrotation Zrotation Yrotation
	JOINT abdomen
	{
		OFFSET 0.000000 3.402643 0.000000 
		CHANNELS 3 Xrotation Zrotation Yrotation
		JOINT chest
		{
			OFFSET 0.000000 8.438565 -0.680529 
			CHANNELS 3 Xrotation Zrotation Yrotation
			JOINT neck
			{
				OFFSET 0.000000 10.207942 -0.272212 
				CHANNELS 3 Xrotation Zrotation Yrotation
				JOINT head
				{
					OFFSET 0.000000 3.130431 0.000000 
					CHANNELS 3 Xrotation Zrotation Yrotation
					End Site
					{
						OFFSET 0.000000 3.130435 0.000000 
					}
				}
			}
			JOINT lCollar
			{
				OFFSET 3.470700 6.669187 -0.816635 
				CHANNELS 3 Yrotation Zrotation Xrotation
				JOINT lShldr
				{
					OFFSET 3.198488 0.000000 0.000000 
					CHANNELS 3 Zrotation Yrotation Xrotation
					JOINT lForeArm
					{
						OFFSET 10.139888 0.000000 0.000000 
						CHANNELS 3 Yrotation Zrotation Xrotation
						JOINT lHand
						{
							OFFSET 8.370511 0.000000 0.000000 
							CHANNELS 3 Zrotation Yrotation Xrotation
							End Site
							{
								OFFSET 4.083176 0.000000 0.000000 
							}
						}
					}
				}
			}
			JOINT rCollar
			{
				OFFSET -3.470700 6.669187 -0.816635 
				CHANNELS 3 Yrotation Zrotation Xrotation
				JOINT rShldr
				{
					OFFSET -3.198488 0.000000 0.000000 
					CHANNELS 3 Zrotation Yrotation Xrotation
					JOINT rForeArm
					{
						OFFSET -10.139888 0.000000 0.000000 
						CHANNELS 3 Yrotation Zrotation Xrotation
						JOINT rHand
						{
							OFFSET -8.370511 0.000000 0.000000 
							CHANNELS 3 Zrotation Yrotation Xrotation
							End Site
							{
								OFFSET -4.083176 0.000000 0.000000 
							}
						}
					}
				}
			}
		}
	}
	JOINT lThigh
	{
		OFFSET 5.308129 -1.633274 1.361059 
		CHANNELS 3 Xrotation Zrotation Yrotation
		JOINT lShin
		{
			OFFSET -2.041588 -20.007561 0.000000 
			CHANNELS 3 Xrotation Zrotation Yrotation
			JOINT lFoot
			{
				OFFSET 0.000000 -19.190928 -1.224953 
				CHANNELS 3 Xrotation Yrotation Zrotation
				End Site
				{
					OFFSET 0.000000 -2.449906 4.627600 
				}
			}
		}
	}
	JOINT rThigh
	{
		OFFSET -5.308129 -1.633274 1.361059 
		CHANNELS 3 Xrotation Zrotation Yrotation
		JOINT rShin
		{
			OFFSET 2.041588 -20.007561 0.000000 
			CHANNELS 3 Xrotation Zrotation Yrotation
			JOINT rFoot
			{
				OFFSET 0.000000 -19.190928 -1.224953 
				CHANNELS 3 Xrotation Yrotation Zrotation
				End Site
				{
					OFFSET 0.000000 -2.449906 4.627600 
				}
			}
		}
	}
}
MOTION
Frames: 11
Frame Time: 0.033333
-43.694313 48.358479 63.519642 1.085372 1.162277 -40.283257 0.000000 0.000000 0.000000 1.096489 2.923636 3.686803 3.584988 1.102390 2.588539 -14.222237 -2.607179 -0.782218 4.108343 4.918522 1.299841 -66.144165 17.704117 17.084501 -40.020447 -14.715194 20.206039 3.347223 8.843157 -3.517586 8.353724 10.369802 0.794308 47.533905 8.597683 13.688413 45.590374 15.566645 11.414639 -27.701384 -9.057837 -2.185632 -29.171846 4.735052 -2.859681 -2.155777 -4.286523 19.264723 10.437321 -0.050702 -0.579412 6.008237 -2.653591 -6.714944 15.425458 4.841087 -2.417945 -20.146109 0.009142 -0.263316 
-45.307026 48.020256 66.238640 3.045029 2.405251 -41.558331 0.000000 0.000000 0.000000 -1.392734 2.558194 5.103024 1.863861 1.550323 3.194567 -11.169703 -0.331817 -2.060625 4.740990 3.499796 -1.024196 -71.706375 18.342991 5.675939 -37.038670 -9.002302 43.589069 -6.495223 20.215858 -4.698268 10.056850 9.706403 -1.533090 53.082954 1.807213 7.373844 46.936298 13.724473 5.025598 -31.118359 -12.472783 -1.077210 -29.299080 4.237155 -3.463944 -1.470794 -3.552543 18.374161 8.787320 0.049134 0.430533 7.572802 -2.830771 -5.453671 14.952404 3.629570 -0.042164 -20.935041 -0.145188 0.788007 
-46.989052 47.783745 69.179398 2.303303 3.288354 -42.596363 0.000000 0.000000 0.000000 -1.978474 0.719030 5.742713 0.931008 1.082218 3.272191 -7.758019 2.973657 -3.275687 4.307800 2.765582 -1.414205 -79.149864 19.537874 -4.923669 -41.549023 -3.466776 50.990894 -11.738796 26.056734 -6.173382 10.231943 7.202567 -1.735431 58.738602 -2.828352 4.959290 48.175457 12.943643 -6.168120 -34.477528 -16.278913 0.315972 -27.100517 2.069888 -4.140069 0.853312 -2.814148 20.022297 9.258143 0.111073 1.065723 7.534465 -5.134680 -6.027935 22.428843 2.420403 3.552966 -19.805527 -0.151501 1.386556 
-48.630989 47.659931 72.295883 -0.088303 3.376727 -42.561962 0.000000 0.000000 0.000000 -1.260339 -1.090167 4.639503 2.267718 -0.390236 2.558601 -9.187110 4.786127 -3.478323 2.952173 1.189587 -0.604944 -82.813553 18.645117 -9.100873 -44.849739 -2.336213 40.356529 -5.563260 27.525013 -5.070697 9.469419 4.263012 -0.734463 61.501549 -5.049326 6.432231 47.359104 13.571830 -12.714191 -32.034081 -17.000530 0.239468 -27.994827 -1.494222 -4.776179 11.490576 -2.174858 24.360857 9.976212 0.111091 0.617764 4.137497 -9.282248 -9.058134 38.920624 1.179665 5.426806 -10.046311 -0.583135 4.050839 
-50.075665 47.632397 75.165382 -1.736827 4.279328 -41.134842 0.000000 0.000000 0.000000 -0.795206 -2.653477 2.619805 3.170738 -2.040890 0.635059 -11.537061 4.172904 -3.270117 1.031345 -1.721039 -0.126875 -80.630836 15.912060 -5.299238 -46.299805 -5.066816 21.041409 1.526713 22.743349 -3.519303 7.522404 2.422693 -0.068123 61.381443 -5.074809 9.867399 45.017471 14.726231 -10.029770 -25.733112 -15.735103 -0.847042 -29.582165 -5.769794 -5.351299 21.347319 -1.841968 28.487099 6.080003 0.126107 1.657933 0.281334 -13.184573 -11.057761 49.097286 0.026381 -0.415991 8.182921 1.137251 13.996225 
-51.387989 47.582001 77.629280 -1.761528 3.763301 -41.505470 0.000000 0.000000 0.000000 -0.463316 -2.381028 2.218533 3.054953 -2.255845 -0.205304 -9.247598 2.008874 -3.048424 0.504477 -2.899280 0.127280 -76.408493 11.359483 2.776970 -46.602463 -8.353033 12.106997 4.430651 10.868974 -3.321602 6.798560 4.338896 0.106360 58.028412 -6.714126 13.253651 45.988335 15.104333 1.158402 -18.655489 -13.387642 -1.994414 -28.777065 -6.269164 -4.117405 26.941973 -2.137815 28.882875 2.252394 0.088738 2.053247 -4.823693 -14.156557 -9.832645 55.951653 -2.021482 -1.628117 16.736845 1.927539 13.085882 
-52.563896 48.218636 79.897858 -1.746153 3.225340 -42.837559 0.000000 0.000000 0.000000 -0.358803 -1.902384 2.569536 3.329486 -2.177652 -0.498429 -6.543294 -0.360817 -3.046938 0.910116 -2.974971 0.225292 -73.336182 4.715252 10.533823 -45.609226 -11.096987 9.278767 7.123956 2.756847 -3.510128 7.020875 6.788095 0.087773 55.245399 -8.384392 15.844296 45.603664 15.117488 13.098835 -17.967419 -9.818108 -2.595165 -25.110861 -6.287212 -3.677729 26.701431 -2.162719 29.487078 0.788999 0.030554 2.251035 -11.484011 -14.667192 -8.591627 63.763130 -3.056837 -4.331505 13.525581 1.097169 9.195742 
-53.830402 49.245651 81.846367 -1.414421 2.453819 -43.809788 0.000000 0.000000 0.000000 -0.591608 -1.493147 2.090406 3.780326 -1.913952 -0.615870 -3.317398 -1.970992 -2.355145 0.742188 -2.636719 0.000449 -71.662216 0.043324 13.720995 -47.227085 -11.257412 17.229641 6.288695 3.261726 -3.506840 6.640414 7.748648 -0.215410 55.043839 -9.233471 17.564554 45.354702 15.570342 17.598577 -20.420179 -9.907305 -2.415752 -20.582190 -5.917436 -3.691210 24.153923 -1.886027 29.838306 1.037477 0.055638 2.195920 -17.008570 -13.834663 -7.697239 66.034454 -3.115171 -5.687336 10.573320 0.651170 6.747919 
-55.063911 50.629894 83.594360 -1.190079 1.641048 -44.114334 0.000000 0.000000 0.000000 -0.833386 -0.996008 0.752009 4.323962 -1.913871 -0.811073 1.240663 -4.110754 -0.960169 -0.180780 -1.395846 -0.205016 -71.725868 -3.864618 14.630391 -47.635918 -10.805715 24.473038 4.758707 7.647521 -3.387935 5.629419 6.919986 -0.441227 57.178963 -9.598788 17.946320 45.202541 15.918934 15.602915 -21.904276 -13.096410 -1.773675 -15.775350 -5.047214 -3.487087 20.412809 -2.007071 28.160166 5.365730 0.088085 1.003659 -20.847549 -12.410593 -7.244071 63.102512 -2.138815 -6.067693 9.635529 0.494848 5.879209 
-56.297134 52.122555 85.201576 -0.597851 0.774561 -43.862423 0.000000 0.000000 0.000000 -1.297730 -0.195309 -0.322297 4.887876 -2.060400 -0.684205 6.524750 -5.400380 -0.118506 -1.329068 -0.083844 -0.595542 -71.118370 -7.666359 15.689950 -47.526669 -11.129748 26.088995 3.325006 10.392350 -3.394286 4.472527 5.950773 -0.841936 59.477955 -10.663804 17.434038 45.155319 15.894810 12.547748 -20.056049 -14.753536 -1.653644 -12.269589 -3.357926 -2.376739 17.602291 -2.516167 25.663555 11.561827 -0.004691 -0.494106 -22.713099 -9.960014 -6.405170 54.635235 -0.439783 -6.021056 10.710879 0.613263 6.663190 
-57.483299 53.285114 86.722855 -0.143896 0.626778 -42.463993 0.000000 0.000000 0.000000 -1.977895 -0.156184 -1.660177 5.694693 -2.363083 -0.743167 10.134424 -4.404184 0.411195 -2.737696 1.259287 -1.209894 -69.539032 -11.475515 16.924017 -48.032578 -11.882475 22.846479 3.133890 12.015709 -3.386619 2.709782 5.637473 -1.431770 60.301193 -11.972477 17.513857 46.370918 15.699364 10.913498 -16.026861 -14.672211 -2.057025 -11.405296 -2.382850 -1.412931 18.013454 -3.044739 23.391508 17.612614 -0.264747 -1.920473 -23.411551 -8.337141 -5.258520 43.515995 1.697974 -4.043602 12.232563 0.892476 8.099747 
